<svg xmlns="http://www.w3.org/2000/svg" xmlns:xlink="http://www.w3.org/1999/xlink" width="500" zoomAndPan="magnify" viewBox="0 0 375 374.999991" height="500" preserveAspectRatio="xMidYMid meet" version="1.0"><path fill="#ffffff" d="M 372.121094 187.441406 C 372.121094 251.816406 339.167969 308.484375 289.199219 341.507812 C 260.054688 360.78125 225.117188 372.003906 187.558594 372.003906 C 149.988281 372.003906 115.050781 360.78125 85.90625 341.507812 C 35.949219 308.484375 2.992188 251.804688 2.992188 187.441406 C 2.992188 85.507812 85.625 2.878906 187.554688 2.878906 C 289.492188 2.878906 372.117188 85.507812 372.117188 187.441406 " fill-opacity="1" fill-rule="nonzero"/><path fill="#1f75fe" d="M 187.558594 5.816406 C 87.410156 5.816406 5.933594 87.292969 5.933594 187.441406 C 5.929688 248.597656 36.433594 305.289062 87.527344 339.050781 C 117.210938 358.691406 151.808594 369.066406 187.558594 369.066406 C 223.308594 369.066406 257.894531 358.691406 287.578125 339.050781 C 338.675781 305.289062 369.183594 248.609375 369.183594 187.441406 C 369.183594 87.292969 287.707031 5.816406 187.558594 5.816406 Z M 187.558594 374.941406 C 150.644531 374.941406 114.933594 364.226562 84.285156 343.964844 C 31.546875 309.097656 0.0546875 250.585938 0.0546875 187.441406 C 0.0546875 84.050781 84.167969 -0.0585938 187.554688 -0.0585938 C 290.9375 -0.0546875 375.054688 84.050781 375.054688 187.441406 C 375.054688 250.585938 343.558594 309.097656 290.816406 343.964844 C 260.167969 364.226562 224.457031 374.941406 187.554688 374.941406 " fill-opacity="1" fill-rule="nonzero"/><path fill="#1f75fe" d="M 301.375 145.015625 C 300.445312 142.84375 299.320312 140.644531 298.121094 138.390625 C 295.769531 133.96875 292.539062 130.117188 292.101562 125.015625 C 291.703125 120.304688 293.855469 115.789062 293.867188 110.9375 C 293.878906 98.351562 287.484375 93.0625 278.589844 86.234375 C 270.28125 79.851562 272.125 66.714844 263.863281 59.898438 C 259.585938 56.375 255.941406 57.785156 251.6875 55.539062 C 248.046875 53.625 244.683594 48.042969 241.101562 45.542969 C 231.5 38.832031 227.386719 42.015625 216.890625 43.957031 C 207.488281 45.695312 199.957031 39.527344 191.039062 37.332031 C 180.824219 34.820312 172.058594 37.710938 162.246094 40.253906 C 152.773438 42.707031 141.820312 38.203125 132.867188 41.707031 C 124.167969 45.101562 121.972656 57.066406 117.71875 64.035156 C 112.019531 73.367188 99.46875 77.28125 91.734375 84.601562 C 86.75 89.300781 87.316406 91.546875 86.445312 97.398438 C 85.742188 102.136719 83.367188 106.011719 81.003906 110.324219 C 76.515625 118.539062 71.746094 128.542969 76.292969 137.964844 C 78.335938 142.207031 80.664062 143.382812 81.15625 148.519531 C 81.628906 153.347656 80.265625 158.191406 79.429688 162.621094 C 78.253906 168.839844 78.195312 171.421875 81.734375 176.734375 C 84.566406 181 85.8125 183.339844 86.90625 188.476562 C 87.808594 192.742188 88.375 197.582031 91.875 200.671875 C 95.929688 204.222656 98.9375 203.789062 101.570312 209.171875 C 106.484375 219.148438 107.058594 225.964844 118.175781 230.792969 C 126.578125 234.449219 128.433594 245.203125 137.566406 246.648438 C 147.777344 248.257812 155.605469 245.660156 165.183594 250.3125 C 169.71875 252.523438 173.351562 253.863281 178.109375 254.847656 C 196.679688 258.714844 215.410156 258.785156 232.625 248.726562 C 240.59375 244.074219 251.089844 242.523438 253.921875 232.542969 C 256.742188 222.578125 264.96875 219.957031 272.699219 213.71875 C 280.339844 207.546875 284.136719 201.074219 284.59375 192.449219 C 285.144531 182.058594 296.34375 175.277344 301.339844 166.148438 C 305.464844 158.601562 304.347656 151.925781 301.375 145.015625 " fill-opacity="1" fill-rule="nonzero"/><path fill="#1f75fe" d="M 141.5625 43.25 C 138.4375 43.25 136.015625 43.625 133.933594 44.4375 C 128.929688 46.398438 126.332031 52.371094 123.839844 58.136719 C 122.675781 60.828125 121.574219 63.355469 120.222656 65.5625 C 116.425781 71.78125 110.136719 75.65625 104.0625 79.417969 C 100.230469 81.792969 96.613281 84.023438 93.757812 86.726562 C 90.335938 89.972656 90.160156 91.40625 89.691406 95.226562 C 89.597656 96.011719 89.488281 96.882812 89.347656 97.820312 C 88.644531 102.582031 86.457031 106.53125 84.34375 110.347656 L 83.589844 111.734375 C 79.300781 119.585938 75.046875 128.636719 78.9375 136.683594 C 79.546875 137.953125 80.207031 138.941406 80.839844 139.894531 C 82.238281 141.972656 83.683594 144.125 84.085938 148.226562 C 84.507812 152.585938 83.613281 156.863281 82.828125 160.636719 C 82.636719 161.492188 82.472656 162.339844 82.308594 163.171875 C 81.203125 169.027344 81.238281 170.707031 84.167969 175.113281 C 87.058594 179.4375 88.550781 182.105469 89.773438 187.851562 C 89.890625 188.394531 89.996094 188.945312 90.113281 189.484375 C 90.816406 193.058594 91.5 196.417969 93.816406 198.464844 C 95.058594 199.546875 96.175781 200.191406 97.351562 200.863281 C 99.703125 202.226562 102.125 203.625 104.214844 207.867188 C 105.261719 210.003906 106.117188 212.015625 106.882812 213.789062 C 109.820312 220.617188 111.59375 224.730469 119.339844 228.101562 C 123.839844 230.054688 126.671875 233.636719 129.164062 236.796875 C 131.855469 240.195312 134.171875 243.132812 138.023438 243.742188 C 141.550781 244.296875 144.863281 244.320312 148.074219 244.34375 C 153.84375 244.390625 159.800781 244.4375 166.464844 247.667969 C 171.023438 249.878906 174.457031 251.101562 178.710938 251.980469 C 186.3125 253.558594 193.128906 254.332031 199.546875 254.332031 L 199.558594 254.332031 C 211.449219 254.332031 221.769531 251.664062 231.144531 246.199219 C 233.378906 244.882812 235.753906 243.839844 238.054688 242.804688 C 244.132812 240.101562 249.386719 237.773438 251.089844 231.746094 C 253.460938 223.390625 259.292969 219.476562 264.921875 215.691406 C 266.871094 214.375 268.90625 213.011719 270.84375 211.4375 C 278.023438 205.644531 281.253906 199.910156 281.667969 192.292969 C 282.066406 184.773438 287.015625 179.179688 291.808594 173.773438 C 294.511719 170.730469 297.050781 167.863281 298.765625 164.738281 C 301.902344 158.988281 301.878906 153.609375 298.683594 146.167969 C 297.707031 143.925781 296.542969 141.679688 295.535156 139.777344 C 294.957031 138.71875 294.347656 137.695312 293.6875 136.601562 C 291.65625 133.230469 289.550781 129.738281 289.175781 125.261719 C 288.917969 122.289062 289.503906 119.539062 290.070312 116.871094 C 290.503906 114.816406 290.925781 112.863281 290.925781 110.9375 C 290.9375 99.949219 285.828125 95.496094 276.800781 88.5625 C 271.890625 84.789062 270.101562 79.324219 268.375 74.023438 C 266.871094 69.382812 265.4375 65.011719 261.996094 62.167969 C 260.125 60.628906 258.457031 60.34375 256.355469 59.96875 C 254.554688 59.664062 252.535156 59.3125 250.3125 58.148438 C 247.855469 56.855469 245.753906 54.484375 243.707031 52.191406 C 242.261719 50.570312 240.769531 48.890625 239.417969 47.949219 C 234.953125 44.835938 232.285156 44.414062 230.253906 44.414062 C 228.148438 44.414062 225.929688 44.945312 223.121094 45.605469 C 221.449219 46 219.570312 46.449219 217.433594 46.84375 C 216.152344 47.078125 214.847656 47.199219 213.554688 47.199219 C 208.148438 47.199219 203.363281 45.183594 198.734375 43.230469 C 195.878906 42.023438 193.175781 40.886719 190.332031 40.1875 C 187.921875 39.589844 185.515625 39.304688 182.988281 39.304688 C 177.3125 39.304688 171.742188 40.78125 165.851562 42.34375 C 164.902344 42.59375 163.949219 42.847656 162.984375 43.097656 C 160.730469 43.679688 158.226562 43.960938 155.324219 43.964844 C 152.925781 43.964844 150.503906 43.777344 148.179688 43.59375 C 145.863281 43.417969 143.6875 43.25 141.5625 43.25 Z M 199.558594 260.210938 L 199.546875 260.210938 C 192.730469 260.210938 185.515625 259.386719 177.511719 257.730469 C 172.75 256.742188 168.933594 255.402344 163.902344 252.960938 C 158.425781 250.304688 153.609375 250.269531 148.027344 250.222656 C 144.605469 250.199219 141.070312 250.175781 137.109375 249.550781 C 130.984375 248.578125 127.566406 244.261719 124.558594 240.445312 C 122.289062 237.566406 120.140625 234.863281 117 233.5 C 107.105469 229.199219 104.507812 223.132812 101.488281 216.117188 C 100.714844 214.320312 99.914062 212.464844 98.9375 210.464844 C 97.644531 207.820312 96.421875 207.128906 94.414062 205.964844 C 93.097656 205.199219 91.617188 204.34375 89.949219 202.875 C 86.128906 199.523438 85.175781 194.800781 84.34375 190.640625 C 84.238281 190.121094 84.132812 189.59375 84.027344 189.089844 C 83.0625 184.527344 82.039062 182.507812 79.277344 178.371094 C 75.175781 172.191406 75.292969 168.664062 76.539062 162.070312 C 76.703125 161.214844 76.890625 160.332031 77.082031 159.4375 C 77.808594 155.914062 78.574219 152.269531 78.230469 148.804688 C 77.972656 146.171875 77.175781 144.972656 75.964844 143.164062 C 75.246094 142.09375 74.4375 140.882812 73.648438 139.25 C 68.535156 128.683594 73.4375 118.050781 78.429688 108.917969 L 79.207031 107.519531 C 81.226562 103.839844 82.992188 100.667969 83.542969 96.964844 C 83.671875 96.074219 83.765625 95.261719 83.859375 94.523438 C 84.378906 90.246094 84.753906 87.152344 89.714844 82.464844 C 93.003906 79.351562 97.058594 76.847656 100.972656 74.425781 C 106.71875 70.878906 112.148438 67.515625 115.214844 62.511719 C 116.34375 60.640625 117.367188 58.292969 118.445312 55.8125 C 121.289062 49.25 124.511719 41.820312 131.796875 38.972656 C 134.582031 37.886719 137.683594 37.375 141.5625 37.375 C 143.914062 37.375 146.308594 37.558594 148.625 37.738281 C 150.953125 37.917969 153.148438 38.09375 155.324219 38.09375 C 157.722656 38.085938 159.753906 37.867188 161.503906 37.414062 C 162.46875 37.164062 163.410156 36.914062 164.347656 36.664062 C 170.625 35.003906 176.546875 33.433594 182.988281 33.433594 C 185.996094 33.433594 188.863281 33.777344 191.730469 34.480469 C 195.03125 35.292969 198.078125 36.578125 201.027344 37.820312 C 205.304688 39.625 209.335938 41.324219 213.554688 41.324219 C 214.492188 41.324219 215.433594 41.238281 216.363281 41.070312 C 218.347656 40.699219 220.085938 40.285156 221.769531 39.890625 C 224.824219 39.167969 227.457031 38.542969 230.253906 38.542969 C 234.367188 38.542969 238.234375 39.960938 242.78125 43.136719 C 244.695312 44.472656 246.421875 46.410156 248.09375 48.285156 C 249.785156 50.183594 251.535156 52.148438 253.0625 52.945312 C 254.449219 53.679688 255.789062 53.917969 257.363281 54.1875 C 259.84375 54.617188 262.664062 55.109375 265.730469 57.644531 C 270.492188 61.558594 272.253906 66.976562 273.957031 72.207031 C 275.484375 76.859375 276.917969 81.242188 280.375 83.898438 C 288.824219 90.398438 296.816406 96.519531 296.804688 110.9375 C 296.804688 113.488281 296.296875 115.828125 295.816406 118.097656 C 295.324219 120.445312 294.839844 122.65625 295.027344 124.769531 C 295.289062 127.875 296.957031 130.648438 298.730469 133.574219 C 299.390625 134.679688 300.082031 135.816406 300.71875 137.015625 C 301.785156 139.015625 303.019531 141.398438 304.078125 143.855469 C 306.699219 149.957031 309.0625 158.15625 303.914062 167.558594 C 301.890625 171.261719 299 174.527344 296.203125 177.679688 C 291.890625 182.542969 287.8125 187.136719 287.53125 192.613281 C 287.039062 201.933594 283.03125 209.148438 274.546875 216.011719 C 272.394531 217.738281 270.257812 219.183594 268.1875 220.570312 C 262.792969 224.203125 258.527344 227.058594 256.753906 233.347656 C 254.285156 242.019531 246.929688 245.285156 240.453125 248.175781 C 238.183594 249.1875 236.058594 250.128906 234.109375 251.269531 C 223.8125 257.285156 212.507812 260.210938 199.558594 260.210938 " fill-opacity="1" fill-rule="nonzero"/><path fill="#ffffff" d="M 289.199219 341.507812 C 260.054688 360.78125 225.117188 372.003906 187.558594 372.003906 C 149.988281 372.003906 115.050781 360.78125 85.90625 341.507812 C 93.828125 319.097656 108.960938 300.082031 128.519531 287.261719 C 139.953125 279.75 152.902344 274.371094 166.816406 271.65625 C 173.527344 270.351562 180.460938 269.667969 187.558594 269.667969 C 190.882812 269.667969 194.175781 269.808594 197.417969 270.113281 C 197.984375 270.164062 198.546875 270.222656 199.097656 270.28125 C 199.453125 270.316406 199.804688 270.351562 200.144531 270.398438 C 200.53125 270.445312 200.910156 270.492188 201.296875 270.539062 C 201.53125 270.5625 201.777344 270.597656 202.011719 270.632812 C 202.355469 270.667969 202.707031 270.726562 203.058594 270.773438 C 203.328125 270.808594 203.601562 270.855469 203.882812 270.890625 L 204.128906 270.925781 C 204.679688 271.019531 205.222656 271.101562 205.773438 271.195312 L 205.785156 271.195312 C 206.632812 271.347656 207.476562 271.5 208.3125 271.667969 L 208.335938 271.667969 C 209.183594 271.832031 210.027344 272.007812 210.875 272.195312 C 211.027344 272.230469 211.191406 272.265625 211.34375 272.300781 C 211.671875 272.371094 211.992188 272.441406 212.320312 272.523438 C 212.425781 272.546875 212.542969 272.570312 212.648438 272.605469 C 212.859375 272.652344 213.070312 272.699219 213.273438 272.757812 C 213.496094 272.804688 213.71875 272.851562 213.929688 272.914062 C 213.964844 272.925781 214 272.925781 214.023438 272.9375 C 214.046875 272.949219 214.082031 272.949219 214.105469 272.960938 C 214.585938 273.078125 215.058594 273.207031 215.527344 273.335938 C 215.796875 273.394531 216.070312 273.464844 216.328125 273.546875 C 216.597656 273.617188 216.855469 273.699219 217.113281 273.769531 C 217.714844 273.933594 218.300781 274.109375 218.902344 274.285156 C 219.359375 274.429688 219.816406 274.570312 220.277344 274.722656 C 220.570312 274.816406 220.875 274.910156 221.15625 275.003906 C 221.640625 275.15625 222.121094 275.320312 222.589844 275.484375 C 222.859375 275.578125 223.132812 275.671875 223.390625 275.769531 C 224.34375 276.097656 225.28125 276.449219 226.222656 276.800781 C 226.65625 276.976562 227.105469 277.144531 227.550781 277.332031 C 228.277344 277.613281 228.996094 277.917969 229.710938 278.222656 C 230.640625 278.613281 231.546875 279.011719 232.460938 279.433594 C 233.261719 279.796875 234.0625 280.175781 234.847656 280.5625 C 234.90625 280.585938 234.953125 280.621094 235.011719 280.644531 C 235.351562 280.808594 235.695312 280.972656 236.023438 281.148438 C 236.058594 281.160156 236.082031 281.183594 236.117188 281.195312 C 236.847656 281.5625 237.550781 281.925781 238.269531 282.3125 L 238.28125 282.3125 C 238.925781 282.667969 239.582031 283.019531 240.21875 283.382812 C 240.394531 283.476562 240.558594 283.570312 240.722656 283.664062 C 240.945312 283.792969 241.160156 283.910156 241.371094 284.03125 C 241.910156 284.347656 242.453125 284.664062 242.980469 284.992188 L 243.507812 285.308594 C 243.636719 285.378906 243.765625 285.464844 243.898438 285.546875 C 244.8125 286.097656 245.707031 286.671875 246.601562 287.261719 C 259.527344 295.734375 270.515625 306.910156 278.765625 319.988281 C 283.007812 326.699219 286.519531 333.914062 289.199219 341.507812 " fill-opacity="1" fill-rule="nonzero"/><path fill="#1f75fe" d="M 89.464844 340.320312 C 118.714844 359.136719 152.585938 369.066406 187.558594 369.066406 C 222.53125 369.066406 256.390625 359.136719 285.640625 340.320312 C 283.160156 333.773438 280.023438 327.476562 276.285156 321.566406 C 268.304688 308.917969 257.492188 297.90625 244.988281 289.71875 C 244.121094 289.140625 243.261719 288.589844 242.382812 288.058594 C 242.238281 287.964844 242.179688 287.929688 242.109375 287.894531 C 242.074219 287.871094 242.027344 287.847656 241.992188 287.824219 L 241.453125 287.507812 C 240.921875 287.167969 240.40625 286.863281 239.878906 286.566406 C 239.679688 286.449219 239.464844 286.332031 239.253906 286.203125 C 239.125 286.132812 238.984375 286.050781 238.832031 285.980469 C 238.257812 285.640625 237.75 285.367188 237.246094 285.097656 L 237.023438 284.96875 C 236.964844 284.945312 236.917969 284.921875 236.871094 284.898438 C 236.175781 284.523438 235.507812 284.171875 234.800781 283.828125 L 234.800781 283.816406 C 234.789062 283.816406 234.765625 283.804688 234.742188 283.792969 C 234.707031 283.769531 234.671875 283.757812 234.625 283.734375 C 234.34375 283.582031 234.035156 283.441406 233.730469 283.289062 L 233.589844 283.21875 C 233.578125 283.207031 233.566406 283.207031 233.542969 283.195312 C 232.792969 282.820312 232.015625 282.453125 231.238281 282.101562 C 230.347656 281.691406 229.476562 281.304688 228.574219 280.9375 C 227.867188 280.632812 227.1875 280.339844 226.492188 280.070312 C 226.175781 279.941406 225.929688 279.847656 225.691406 279.75 L 225.117188 279.515625 C 224.269531 279.210938 223.355469 278.859375 222.425781 278.542969 C 222.132812 278.433594 221.886719 278.351562 221.628906 278.257812 C 221.179688 278.105469 220.722656 277.941406 220.265625 277.800781 L 219.382812 277.519531 C 218.9375 277.367188 218.535156 277.25 218.136719 277.132812 L 217.785156 277.023438 C 217.300781 276.871094 216.820312 276.730469 216.339844 276.601562 L 215.949219 276.496094 C 215.832031 276.460938 215.714844 276.425781 215.585938 276.390625 C 215.539062 276.378906 215.480469 276.367188 215.433594 276.34375 C 215.257812 276.285156 215.082031 276.238281 214.90625 276.203125 C 214.847656 276.191406 214.800781 276.179688 214.753906 276.167969 L 214.636719 276.132812 C 214.234375 276.027344 213.824219 275.910156 213.414062 275.816406 C 213.355469 275.804688 213.308594 275.78125 213.25 275.769531 C 213.164062 275.757812 213.09375 275.734375 213.023438 275.710938 C 212.976562 275.699219 212.835938 275.675781 212.683594 275.636719 C 212.589844 275.613281 212.507812 275.589844 212.4375 275.566406 C 212.296875 275.53125 212.15625 275.507812 212.015625 275.472656 C 211.933594 275.449219 211.828125 275.425781 211.742188 275.402344 C 211.707031 275.390625 211.636719 275.378906 211.601562 275.367188 C 211.308594 275.296875 211.015625 275.238281 210.722656 275.167969 L 210.203125 275.050781 C 209.453125 274.886719 208.675781 274.734375 207.902344 274.570312 C 207.84375 274.570312 207.796875 274.558594 207.75 274.546875 C 206.960938 274.394531 206.160156 274.238281 205.363281 274.097656 C 205.328125 274.097656 205.304688 274.097656 205.28125 274.085938 L 203.433594 273.792969 C 203.339844 273.78125 203.164062 273.757812 202.988281 273.722656 L 202.261719 273.628906 C 202.070312 273.59375 201.894531 273.570312 201.707031 273.558594 C 201.660156 273.546875 201.613281 273.546875 201.566406 273.535156 C 201.378906 273.511719 201.191406 273.476562 201.003906 273.464844 L 199.792969 273.3125 C 199.464844 273.265625 199.179688 273.242188 198.898438 273.21875 C 198.253906 273.148438 197.722656 273.089844 197.183594 273.042969 C 194.09375 272.746094 190.859375 272.605469 187.558594 272.605469 C 180.765625 272.605469 173.972656 273.253906 167.382812 274.535156 C 154.03125 277.144531 141.503906 282.242188 130.128906 289.71875 C 111.628906 301.84375 97.269531 319.742188 89.464844 340.320312 Z M 187.558594 374.941406 C 150.644531 374.941406 114.933594 364.222656 84.285156 343.964844 C 83.167969 343.210938 82.6875 341.800781 83.132812 340.53125 C 91.148438 317.839844 106.695312 298.050781 126.90625 284.804688 C 138.917969 276.90625 152.152344 271.511719 166.253906 268.761719 C 173.222656 267.414062 180.390625 266.730469 187.558594 266.730469 C 191.050781 266.730469 194.457031 266.882812 197.699219 267.1875 C 198.242188 267.234375 198.828125 267.292969 199.40625 267.351562 C 199.839844 267.402344 200.203125 267.4375 200.542969 267.484375 L 201.648438 267.625 C 201.859375 267.636719 202.132812 267.683594 202.390625 267.71875 C 202.625 267.742188 202.859375 267.777344 203.105469 267.8125 L 206.160156 268.28125 C 206.207031 268.28125 206.269531 268.292969 206.304688 268.304688 C 207.125 268.457031 207.949219 268.597656 208.746094 268.75 C 208.804688 268.761719 208.851562 268.773438 208.898438 268.785156 C 209.769531 268.953125 210.640625 269.128906 211.507812 269.328125 L 212.015625 269.445312 C 212.332031 269.503906 212.671875 269.585938 213.035156 269.667969 C 213.128906 269.691406 213.25 269.714844 213.378906 269.75 C 213.589844 269.808594 213.789062 269.855469 213.976562 269.902344 C 214.199219 269.949219 214.433594 270.007812 214.648438 270.066406 C 214.707031 270.066406 214.753906 270.089844 214.8125 270.101562 C 214.824219 270.113281 214.847656 270.113281 214.871094 270.113281 C 215.316406 270.234375 215.75 270.351562 216.1875 270.46875 L 216.234375 270.480469 C 216.539062 270.550781 216.84375 270.632812 217.136719 270.726562 C 217.300781 270.761719 217.457031 270.808594 217.597656 270.855469 L 217.878906 270.925781 C 218.417969 271.078125 218.9375 271.230469 219.453125 271.382812 L 219.734375 271.464844 C 219.734375 271.476562 219.863281 271.511719 219.875 271.511719 C 220.324219 271.644531 220.769531 271.785156 221.203125 271.9375 L 222.085938 272.21875 C 222.554688 272.359375 223.0625 272.535156 223.554688 272.710938 C 223.835938 272.804688 224.117188 272.898438 224.402344 273.007812 C 225.316406 273.324219 226.292969 273.6875 227.257812 274.050781 L 227.832031 274.273438 C 228.113281 274.394531 228.40625 274.5 228.691406 274.628906 C 229.371094 274.886719 230.113281 275.203125 230.863281 275.519531 C 231.804688 275.910156 232.746094 276.320312 233.695312 276.765625 C 234.507812 277.144531 235.328125 277.519531 236.140625 277.929688 C 236.199219 277.953125 236.246094 277.976562 236.292969 278 C 236.65625 278.175781 237.023438 278.351562 237.363281 278.542969 C 237.386719 278.542969 237.398438 278.554688 237.410156 278.554688 C 237.410156 278.566406 237.421875 278.566406 237.433594 278.566406 C 238.136719 278.917969 238.820312 279.269531 239.511719 279.644531 C 239.570312 279.679688 239.632812 279.703125 239.679688 279.726562 L 240.054688 279.929688 C 240.59375 280.222656 241.148438 280.527344 241.675781 280.832031 C 241.804688 280.890625 241.992188 281.007812 242.179688 281.113281 L 242.746094 281.433594 C 242.769531 281.445312 242.839844 281.480469 242.851562 281.492188 C 243.414062 281.820312 243.980469 282.160156 244.53125 282.488281 L 244.976562 282.761719 C 245.144531 282.855469 245.320312 282.960938 245.484375 283.078125 C 246.363281 283.605469 247.292969 284.195312 248.210938 284.804688 C 261.40625 293.453125 272.828125 305.078125 281.246094 318.414062 C 285.628906 325.359375 289.234375 332.800781 291.972656 340.53125 C 292.421875 341.800781 291.949219 343.210938 290.820312 343.964844 C 260.171875 364.222656 224.460938 374.941406 187.558594 374.941406 " fill-opacity="1" fill-rule="nonzero"/><path fill="#ffffff" d="M 246.601562 287.261719 C 244.953125 299.707031 239.464844 310.953125 231.347656 319.742188 C 220.464844 331.53125 204.882812 338.921875 187.558594 338.921875 C 159.8125 338.921875 136.496094 319.941406 129.882812 294.253906 C 129.292969 291.972656 128.835938 289.636719 128.519531 287.261719 C 145.476562 276.132812 165.757812 269.667969 187.558594 269.667969 C 190.882812 269.667969 194.175781 269.808594 197.417969 270.113281 C 197.984375 270.164062 198.546875 270.222656 199.097656 270.28125 C 199.453125 270.316406 199.804688 270.351562 200.144531 270.398438 C 200.53125 270.433594 200.921875 270.492188 201.296875 270.539062 C 201.53125 270.5625 201.777344 270.597656 202.011719 270.632812 C 202.355469 270.667969 202.707031 270.726562 203.058594 270.773438 C 203.328125 270.808594 203.601562 270.855469 203.882812 270.890625 C 204.117188 270.925781 204.351562 270.960938 204.585938 271.007812 C 204.988281 271.066406 205.375 271.136719 205.773438 271.195312 C 207.488281 271.488281 209.195312 271.820312 210.875 272.195312 L 212.003906 272.441406 C 212.214844 272.5 212.4375 272.546875 212.648438 272.605469 C 213.046875 272.699219 213.460938 272.792969 213.847656 272.898438 C 213.917969 272.910156 213.976562 272.921875 214.023438 272.9375 C 214.527344 273.066406 215.035156 273.195312 215.527344 273.335938 C 216.070312 273.464844 216.597656 273.617188 217.113281 273.769531 C 217.714844 273.933594 218.300781 274.109375 218.902344 274.285156 C 219.359375 274.429688 219.816406 274.570312 220.277344 274.722656 C 220.570312 274.816406 220.875 274.910156 221.15625 275.003906 C 221.640625 275.15625 222.121094 275.320312 222.589844 275.484375 C 223.179688 275.683594 223.753906 275.886719 224.332031 276.097656 C 224.378906 276.121094 224.414062 276.132812 224.449219 276.144531 C 225.046875 276.355469 225.632812 276.578125 226.222656 276.800781 C 226.65625 276.976562 227.105469 277.144531 227.550781 277.332031 C 228.714844 277.789062 229.851562 278.269531 230.980469 278.765625 L 232.460938 279.433594 C 232.910156 279.632812 233.355469 279.84375 233.800781 280.058594 C 234.214844 280.257812 234.613281 280.445312 235.011719 280.644531 C 235.386719 280.820312 235.753906 281.007812 236.117188 281.195312 C 236.351562 281.316406 236.597656 281.433594 236.835938 281.5625 C 237.808594 282.054688 238.761719 282.570312 239.703125 283.089844 C 240.042969 283.277344 240.394531 283.476562 240.722656 283.664062 C 240.945312 283.792969 241.160156 283.910156 241.371094 284.027344 L 242.167969 284.5 L 242.980469 284.992188 L 243.507812 285.308594 C 244.015625 285.605469 244.507812 285.910156 245 286.226562 C 245.542969 286.566406 246.070312 286.910156 246.601562 287.261719 " fill-opacity="1" fill-rule="nonzero"/><path fill="#1f75fe" d="M 131.703125 288.707031 C 131.972656 290.316406 132.3125 291.9375 132.726562 293.523438 C 139.164062 318.519531 161.714844 335.984375 187.558594 335.984375 C 203.316406 335.984375 218.488281 329.332031 229.183594 317.746094 C 236.714844 309.589844 241.617188 299.578125 243.414062 288.707031 C 242.945312 288.402344 242.488281 288.117188 242.027344 287.847656 L 239.265625 286.214844 C 238.949219 286.039062 238.609375 285.839844 238.292969 285.664062 C 237.375 285.15625 236.445312 284.664062 235.507812 284.183594 C 235.28125 284.066406 235.140625 283.992188 235 283.921875 L 234.800781 283.828125 C 234.4375 283.640625 234.109375 283.464844 233.753906 283.300781 C 233.449219 283.148438 233.203125 283.03125 232.945312 282.914062 L 232.355469 282.628906 C 231.992188 282.453125 231.628906 282.277344 231.265625 282.113281 L 229.78125 281.445312 C 228.703125 280.972656 227.609375 280.515625 226.46875 280.058594 C 226.164062 279.929688 225.917969 279.84375 225.667969 279.738281 L 225.117188 279.527344 C 224.613281 279.328125 224.046875 279.117188 223.472656 278.917969 C 223.402344 278.894531 223.320312 278.859375 223.203125 278.8125 C 222.683594 278.625 222.167969 278.445312 221.652344 278.269531 C 221.167969 278.105469 220.722656 277.941406 220.265625 277.800781 L 219.382812 277.519531 C 218.9375 277.367188 218.523438 277.25 218.113281 277.121094 L 217.84375 277.035156 C 217.335938 276.882812 216.84375 276.742188 216.339844 276.601562 C 215.808594 276.449219 215.328125 276.308594 214.847656 276.191406 C 214.800781 276.179688 214.765625 276.179688 214.71875 276.15625 C 214.257812 276.027344 213.777344 275.910156 213.296875 275.78125 C 213.191406 275.769531 213.175781 275.769531 213.070312 275.734375 C 212.765625 275.648438 212.460938 275.578125 212.144531 275.507812 L 211.980469 275.460938 C 211.933594 275.460938 211.886719 275.4375 211.851562 275.4375 L 211.636719 275.378906 C 211.519531 275.355469 211.402344 275.320312 211.296875 275.296875 L 210.25 275.0625 C 208.675781 274.710938 207.054688 274.394531 205.28125 274.097656 L 204.164062 273.910156 C 204.105469 273.910156 204.058594 273.898438 204.011719 273.886719 C 203.847656 273.851562 203.683594 273.828125 203.53125 273.804688 C 203.339844 273.78125 203.164062 273.757812 202.988281 273.734375 L 202.25 273.628906 C 202.074219 273.59375 201.894531 273.570312 201.71875 273.558594 C 201.660156 273.558594 201.613281 273.546875 201.554688 273.535156 C 201.378906 273.511719 201.191406 273.476562 201.015625 273.464844 L 200.601562 273.40625 C 200.355469 273.382812 200.109375 273.347656 199.863281 273.324219 C 199.441406 273.265625 199.121094 273.242188 198.804688 273.207031 C 198.253906 273.148438 197.710938 273.089844 197.171875 273.042969 C 194.09375 272.757812 190.871094 272.605469 187.558594 272.605469 C 167.675781 272.605469 148.402344 278.164062 131.703125 288.707031 Z M 187.558594 341.859375 C 159.023438 341.859375 134.136719 322.585938 127.035156 294.980469 C 126.414062 292.574219 125.933594 290.105469 125.601562 287.648438 C 125.449219 286.53125 125.957031 285.425781 126.90625 284.804688 C 144.921875 272.984375 165.886719 266.730469 187.558594 266.730469 C 191.050781 266.730469 194.46875 266.882812 197.6875 267.1875 C 198.253906 267.234375 198.839844 267.292969 199.40625 267.363281 C 199.78125 267.402344 200.167969 267.4375 200.53125 267.484375 C 200.746094 267.507812 201.0625 267.542969 201.378906 267.589844 L 201.671875 267.625 C 201.859375 267.636719 202.132812 267.683594 202.390625 267.71875 C 202.613281 267.742188 202.847656 267.777344 203.082031 267.8125 L 204.234375 267.976562 C 204.269531 267.976562 204.398438 268 204.421875 268 C 204.644531 268.035156 204.855469 268.070312 205.082031 268.117188 C 205.28125 268.140625 205.46875 268.175781 205.667969 268.199219 L 206.195312 268.28125 C 208.148438 268.621094 209.863281 268.953125 211.507812 269.328125 L 212.625 269.574219 L 212.800781 269.609375 L 213.011719 269.667969 C 213.128906 269.691406 213.261719 269.726562 213.378906 269.761719 L 213.484375 269.785156 C 213.824219 269.855469 214.152344 269.9375 214.480469 270.03125 C 214.5625 270.042969 214.636719 270.054688 214.707031 270.078125 C 215.257812 270.222656 215.773438 270.351562 216.269531 270.492188 C 216.84375 270.632812 217.410156 270.796875 217.949219 270.949219 C 218.429688 271.078125 218.960938 271.242188 219.511719 271.40625 L 219.734375 271.464844 C 219.746094 271.476562 219.839844 271.5 219.851562 271.5 C 220.300781 271.644531 220.746094 271.785156 221.203125 271.9375 L 222.085938 272.21875 C 222.554688 272.371094 223.0625 272.535156 223.554688 272.710938 C 224.140625 272.910156 224.742188 273.125 225.339844 273.347656 C 225.386719 273.359375 225.433594 273.371094 225.480469 273.394531 C 226.117188 273.617188 226.691406 273.839844 227.269531 274.050781 L 227.808594 274.261719 C 228.089844 274.382812 228.394531 274.5 228.691406 274.628906 C 229.816406 275.0625 230.992188 275.566406 232.15625 276.074219 L 233.671875 276.753906 C 234.0625 276.929688 234.472656 277.121094 234.871094 277.308594 L 235.496094 277.613281 C 235.777344 277.742188 236.046875 277.882812 236.328125 278.023438 C 236.667969 278.175781 237.070312 278.375 237.457031 278.589844 L 237.597656 278.660156 C 237.808594 278.753906 238.03125 278.859375 238.234375 278.976562 C 239.171875 279.445312 240.148438 279.988281 241.125 280.515625 C 241.476562 280.714844 241.839844 280.914062 242.179688 281.113281 L 245.011719 282.785156 C 245.53125 283.089844 246.058594 283.417969 246.589844 283.746094 C 247.128906 284.101562 247.679688 284.453125 248.234375 284.816406 C 249.160156 285.441406 249.65625 286.53125 249.515625 287.648438 C 247.820312 300.445312 242.285156 312.234375 233.507812 321.742188 C 221.699219 334.527344 204.953125 341.859375 187.558594 341.859375 " fill-opacity="1" fill-rule="nonzero"/><path fill="#ffffff" d="M 161.328125 291.738281 L 161.328125 240.113281 C 161.328125 227.054688 172 216.386719 185.054688 216.386719 L 190.0625 216.386719 C 203.117188 216.386719 213.800781 227.054688 213.800781 240.113281 L 213.800781 291.738281 C 213.800781 304.792969 203.117188 315.488281 190.0625 315.488281 L 185.054688 315.488281 " fill-opacity="1" fill-rule="nonzero"/><path fill="#1f75fe" d="M 190.0625 318.425781 L 185.054688 318.425781 C 183.433594 318.425781 182.117188 317.109375 182.117188 315.488281 C 182.117188 313.867188 183.433594 312.550781 185.054688 312.550781 L 190.0625 312.550781 C 201.53125 312.550781 210.863281 303.207031 210.863281 291.738281 L 210.863281 240.113281 C 210.863281 228.644531 201.53125 219.324219 190.0625 219.324219 L 185.054688 219.324219 C 173.585938 219.324219 164.265625 228.644531 164.265625 240.113281 L 164.265625 291.738281 C 164.265625 293.359375 162.949219 294.675781 161.328125 294.675781 C 159.707031 294.675781 158.390625 293.359375 158.390625 291.738281 L 158.390625 240.113281 C 158.390625 225.410156 170.355469 213.449219 185.054688 213.449219 L 190.0625 213.449219 C 204.773438 213.449219 216.738281 225.410156 216.738281 240.113281 L 216.738281 291.738281 C 216.738281 306.453125 204.773438 318.425781 190.0625 318.425781 " fill-opacity="1" fill-rule="nonzero"/><path fill="#ffffff" d="M 251.546875 220.207031 C 251.546875 220.207031 263.839844 216.023438 271.691406 202.320312 C 280.222656 187.441406 274.863281 178.167969 273.171875 176.160156 C 268.550781 170.683594 261.417969 174.195312 260.242188 176.160156 C 259.070312 178.121094 242.050781 209.027344 251.546875 220.207031 " fill-opacity="1" fill-rule="nonzero"/><path fill="#1f75fe" d="M 267.023438 176.160156 C 264.933594 176.160156 263.074219 177.3125 262.722656 177.746094 C 259.984375 182.304688 247.929688 206.351562 252.652344 216.527344 C 256.261719 214.742188 263.828125 210.121094 269.140625 200.863281 C 277.554688 186.195312 271.207031 178.378906 270.925781 178.050781 C 269.855469 176.78125 268.574219 176.160156 267.023438 176.160156 Z M 251.546875 223.144531 C 250.6875 223.144531 249.867188 222.777344 249.300781 222.109375 C 237.878906 208.652344 257.527344 174.984375 257.730469 174.644531 C 259.019531 172.503906 262.839844 170.285156 267.023438 170.285156 C 270.328125 170.285156 273.230469 171.671875 275.425781 174.265625 C 278.90625 178.390625 282.570312 189.25 274.238281 203.789062 C 265.929688 218.277344 253.039062 222.800781 252.5 222.992188 C 252.183594 223.097656 251.863281 223.144531 251.546875 223.144531 " fill-opacity="1" fill-rule="nonzero"/><path fill="#ffffff" d="M 126.765625 220.207031 C 126.765625 220.207031 114.472656 216.023438 106.625 202.320312 C 98.082031 187.441406 103.4375 178.167969 105.132812 176.160156 C 109.75 170.683594 116.882812 174.195312 118.058594 176.160156 C 119.234375 178.121094 136.261719 209.027344 126.765625 220.207031 " fill-opacity="1" fill-rule="nonzero"/><path fill="#1f75fe" d="M 111.289062 176.160156 C 109.738281 176.160156 108.457031 176.78125 107.386719 178.050781 C 107.105469 178.378906 100.761719 186.195312 109.164062 200.863281 C 114.519531 210.191406 122.054688 214.777344 125.660156 216.539062 C 130.386719 206.363281 118.328125 182.304688 115.542969 177.675781 C 115.238281 177.3125 113.382812 176.160156 111.289062 176.160156 Z M 126.765625 223.144531 C 126.449219 223.144531 126.132812 223.097656 125.816406 222.992188 C 125.273438 222.800781 112.382812 218.277344 104.0625 203.789062 C 95.742188 189.25 99.410156 178.390625 102.886719 174.265625 C 105.085938 171.671875 107.988281 170.285156 111.289062 170.285156 C 115.472656 170.285156 119.292969 172.503906 120.585938 174.644531 C 120.785156 174.984375 140.433594 208.652344 129.011719 222.109375 C 128.433594 222.777344 127.613281 223.144531 126.765625 223.144531 " fill-opacity="1" fill-rule="nonzero"/><path fill="#ffffff" d="M 263.59375 173.785156 C 263.59375 128.753906 230.347656 92.226562 189.320312 92.226562 C 148.308594 92.226562 115.039062 128.753906 115.039062 173.785156 C 115.039062 218.84375 148.308594 265.929688 189.320312 265.929688 C 227.867188 265.929688 263.59375 218.464844 263.59375 173.785156 " fill-opacity="1" fill-rule="nonzero"/><path fill="#1f75fe" d="M 189.320312 95.167969 C 149.988281 95.167969 117.976562 130.445312 117.976562 173.785156 C 117.976562 195.269531 125.683594 217.5625 139.128906 234.964844 C 153.089844 253.039062 170.917969 262.992188 189.320312 262.992188 C 206.527344 262.992188 224.484375 252.710938 238.609375 234.789062 C 252.617188 217.007812 260.65625 194.773438 260.65625 173.785156 C 260.65625 130.445312 228.65625 95.167969 189.320312 95.167969 Z M 189.320312 268.871094 C 145.132812 268.871094 112.101562 218.675781 112.101562 173.785156 C 112.101562 127.203125 146.746094 89.289062 189.320312 89.289062 C 231.898438 89.289062 266.53125 127.203125 266.53125 173.785156 C 266.53125 221.78125 228.289062 268.871094 189.320312 268.871094 " fill-opacity="1" fill-rule="nonzero"/><path fill="#1f75fe" d="M 199.039062 92.226562 C 199.039062 92.226562 201.003906 83.71875 193.953125 77.054688 C 186.902344 70.394531 93.53125 84.074219 115.730469 173.785156 C 115.730469 173.785156 137.484375 120.152344 195.125 115.449219 L 199.039062 92.226562 " fill-opacity="1" fill-rule="nonzero"/><path fill="#1f75fe" d="M 186.640625 78.539062 C 172.785156 78.539062 144.734375 86.269531 128.519531 107 C 116.613281 122.195312 112.710938 141.667969 116.847656 164.972656 C 119.84375 159.625 124.664062 152.128906 131.632812 144.40625 C 143.230469 131.574219 163.125 115.824219 192.601562 112.722656 L 196.136719 91.746094 L 196.171875 91.570312 C 196.230469 91.3125 197.605469 84.554688 191.929688 79.183594 C 191.707031 79.054688 190.15625 78.539062 186.640625 78.539062 Z M 115.730469 176.722656 L 115.519531 176.722656 C 114.25 176.628906 113.179688 175.738281 112.875 174.503906 C 105.753906 145.734375 109.457031 121.808594 123.886719 103.378906 C 141.527344 80.839844 171.082031 72.660156 186.640625 72.660156 C 193.585938 72.660156 195.375 74.367188 195.960938 74.917969 C 203.789062 82.296875 202.167969 91.617188 201.917969 92.78125 L 198.019531 115.929688 C 197.792969 117.257812 196.703125 118.257812 195.363281 118.363281 C 140.269531 122.863281 118.667969 174.375 118.457031 174.902344 C 118 176.019531 116.917969 176.722656 115.730469 176.722656 " fill-opacity="1" fill-rule="nonzero"/><path fill="#1f75fe" d="M 180.730469 92.226562 C 180.730469 92.226562 178.78125 83.71875 185.832031 77.054688 C 192.882812 70.394531 286.238281 84.074219 264.050781 173.785156 C 264.050781 173.785156 242.285156 120.152344 184.65625 115.449219 L 180.730469 92.226562 " fill-opacity="1" fill-rule="nonzero"/><path fill="#1f75fe" d="M 187.171875 112.722656 C 216.65625 115.824219 236.550781 131.574219 248.140625 144.40625 C 255.121094 152.128906 259.9375 159.625 262.921875 164.972656 C 267.070312 141.667969 263.15625 122.195312 251.265625 107 C 235.035156 86.269531 206.996094 78.539062 193.128906 78.539062 C 189.628906 78.539062 188.074219 79.054688 187.769531 79.253906 C 182.164062 84.554688 183.539062 91.3125 183.597656 91.59375 C 183.609375 91.628906 183.621094 91.699219 183.632812 91.746094 Z M 264.039062 176.722656 C 262.863281 176.722656 261.769531 176.019531 261.324219 174.902344 C 261.089844 174.328125 239.464844 122.863281 184.421875 118.363281 C 183.082031 118.257812 181.976562 117.257812 181.753906 115.929688 L 177.851562 92.78125 C 177.605469 91.605469 175.996094 82.296875 183.808594 74.917969 C 184.398438 74.367188 186.195312 72.660156 193.128906 72.660156 C 208.699219 72.660156 238.257812 80.839844 255.894531 103.378906 C 270.316406 121.808594 274.015625 145.734375 266.894531 174.503906 C 266.589844 175.738281 265.53125 176.628906 264.25 176.722656 L 264.039062 176.722656 " fill-opacity="1" fill-rule="nonzero"/><path fill="#1f75fe" d="M 247.644531 172.410156 C 247.105469 172.410156 246.566406 172.257812 246.070312 171.953125 C 225.105469 158.589844 206.703125 169.660156 205.9375 170.140625 C 204.550781 170.988281 202.742188 170.566406 201.894531 169.191406 C 201.039062 167.816406 201.460938 166.007812 202.824219 165.148438 C 203.730469 164.597656 225.058594 151.597656 249.21875 166.992188 C 250.59375 167.863281 251.007812 169.683594 250.125 171.046875 C 249.5625 171.929688 248.621094 172.410156 247.644531 172.410156 " fill-opacity="1" fill-rule="nonzero"/><path fill="#1f75fe" d="M 238.679688 185.433594 C 238.148438 185.433594 237.621094 185.289062 237.140625 184.996094 C 224.625 177.289062 214.90625 184.738281 214.8125 184.808594 C 213.53125 185.808594 211.683594 185.585938 210.675781 184.316406 C 209.675781 183.046875 209.898438 181.1875 211.179688 180.191406 C 211.695312 179.765625 224.257812 170.15625 240.21875 180.003906 C 241.605469 180.847656 242.027344 182.660156 241.183594 184.046875 C 240.617188 184.9375 239.667969 185.433594 238.679688 185.433594 " fill-opacity="1" fill-rule="nonzero"/><path fill="#1f75fe" d="M 136.625 185.433594 C 135.640625 185.433594 134.675781 184.9375 134.125 184.046875 C 133.265625 182.660156 133.699219 180.847656 135.074219 180.003906 C 151.035156 170.15625 163.597656 179.765625 164.125 180.191406 C 165.40625 181.1875 165.617188 183.046875 164.621094 184.316406 C 163.621094 185.585938 161.773438 185.808594 160.507812 184.820312 C 160.09375 184.503906 150.539062 177.371094 138.164062 184.996094 C 137.683594 185.289062 137.15625 185.433594 136.625 185.433594 " fill-opacity="1" fill-rule="nonzero"/><path fill="#1f75fe" d="M 170.519531 171.859375 C 169.90625 171.859375 169.285156 171.671875 168.769531 171.28125 C 168.027344 170.742188 150.609375 158.191406 128.625 169.753906 C 127.191406 170.519531 125.402344 169.964844 124.652344 168.53125 C 123.898438 167.097656 124.441406 165.3125 125.886719 164.558594 C 151.246094 151.222656 171.433594 165.933594 172.28125 166.570312 C 173.574219 167.546875 173.84375 169.378906 172.867188 170.683594 C 172.292969 171.457031 171.410156 171.859375 170.519531 171.859375 " fill-opacity="1" fill-rule="nonzero"/><path fill="#1f75fe" d="M 188.699219 219.40625 C 185.515625 219.40625 183.117188 218.277344 182.976562 218.207031 C 181.519531 217.503906 180.90625 215.738281 181.613281 214.28125 C 182.316406 212.824219 184.058594 212.214844 185.515625 212.90625 C 185.621094 212.953125 188.640625 214.292969 191.496094 212.917969 C 192.953125 212.214844 194.703125 212.824219 195.421875 214.28125 C 196.125 215.738281 195.515625 217.503906 194.046875 218.207031 C 192.1875 219.113281 190.332031 219.40625 188.699219 219.40625 " fill-opacity="1" fill-rule="nonzero"/><path fill="#1f75fe" d="M 187.464844 232.992188 C 179.367188 232.992188 173.949219 230.570312 173.621094 230.417969 C 172.140625 229.746094 171.492188 227.996094 172.175781 226.527344 C 172.84375 225.058594 174.585938 224.402344 176.054688 225.070312 C 176.242188 225.152344 186.582031 229.640625 199.535156 224.988281 C 201.0625 224.4375 202.742188 225.234375 203.292969 226.75 C 203.847656 228.289062 203.046875 229.972656 201.519531 230.511719 C 196.359375 232.367188 191.566406 232.992188 187.464844 232.992188 " fill-opacity="1" fill-rule="nonzero"/><path fill="#1f75fe" d="M 229.253906 189.507812 C 229.253906 194.972656 226.09375 199.417969 222.179688 199.417969 C 218.265625 199.417969 215.105469 194.972656 215.105469 189.507812 C 215.105469 184.019531 218.265625 179.578125 222.179688 179.578125 C 226.09375 179.578125 229.253906 184.019531 229.253906 189.507812 " fill-opacity="1" fill-rule="nonzero"/><path fill="#1f75fe" d="M 160.542969 189.507812 C 160.542969 194.972656 157.367188 199.417969 153.464844 199.417969 C 149.554688 199.417969 146.378906 194.972656 146.378906 189.507812 C 146.378906 184.019531 149.554688 179.578125 153.464844 179.578125 C 157.367188 179.578125 160.542969 184.019531 160.542969 189.507812 " fill-opacity="1" fill-rule="nonzero"/></svg>